<svg xmlns="http://www.w3.org/2000/svg" width="162" height="41" fill="none" viewBox="0 0 162 41">
    <path fill="url(#paint0_linear)" fill-rule="evenodd" d="M28.508 22.997c0 .963-.477 1.855-1.258 2.347l-2.148 1.722c-.203.128-.461-.028-.461-.28V16.164c0-.556-.343-1.045-.843-1.205l-2.668-.85c-.348-.111-.703.148-.703.513v9.476l-2.504-3.08c-.298-.186-.667-.182-.961.01l-2.4 3.07v-9.428c0-.378-.38-.639-.732-.502l-2.414.932c-.468.18-.78.653-.78 1.181v10.504c0 .252-.258.409-.461.279l-2.119-1.718c-.775-.492-1.249-1.382-1.249-2.342v-9.145c0-1.086.606-2.069 1.543-2.502l8.07-3.737c.638-.296 1.373-.302 2.015-.017l8.494 3.768c.956.424 1.58 1.417 1.58 2.52v9.107zm-8.754 5.534l-1.337.687c-.511.262-1.118.262-1.63 0l-1.337-.687c-.075 0-.11-.122-.054-.188l2.206-2.65 2.207 2.65c.055.066.02.188-.055.188zM17.727.273C7.937.273 0 8.21 0 18s7.937 17.727 17.727 17.727S35.454 27.79 35.454 18 27.517.273 17.727.273z" clip-rule="evenodd"/>
    <path fill="#312F4F" fill-rule="evenodd" d="M118.453 17c-1.127 0-2.132-.182-3.014-.546-.882-.364-1.575-.904-2.079-1.622-.504-.717-.756-1.612-.756-2.682v-.578h3.749v.504c0 .609.177 1.092.53 1.449.353.357.887.535 1.601.535.707 0 1.255-.108 1.644-.325.388-.217.583-.574.583-1.07 0-.357-.163-.68-.489-.967-.325-.286-.765-.55-1.318-.792s-1.176-.468-1.869-.678c-.756-.237-1.463-.554-2.121-.95-.658-.395-1.19-.902-1.596-1.522-.406-.62-.61-1.387-.61-2.304 0-.938.254-1.738.762-2.4.507-.66 1.193-1.168 2.058-1.522.865-.353 1.836-.53 2.914-.53 1.113 0 2.106.175 2.977.525.872.35 1.56.868 2.064 1.554s.756 1.533.756 2.54v.578h-3.738v-.399c0-.567-.158-1.02-.473-1.36-.315-.339-.83-.508-1.544-.508-.693 0-1.228.125-1.606.377-.378.252-.567.63-.567 1.134 0 .364.147.676.441.935.294.259.696.495 1.207.708.511.214 1.092.436 1.743.667.931.322 1.747.679 2.447 1.07.7.393 1.243.882 1.627 1.47.386.589.578 1.34.578 2.258 0 .952-.25 1.758-.751 2.42-.5.661-1.195 1.165-2.084 1.511-.889.347-1.911.52-3.066.52zM55.184 1.252l-1.287 12.78-2.062-12.78h-4.62l-2.073 12.787-1.288-12.787H40l2.205 15.486h5.744l1.575-11.595L51.1 16.738h5.733l2.205-15.486h-3.853zm15.448 2.835V1.252h-9.735v15.486h9.735v-2.835h-5.965v-3.517h4.8V7.55h-4.8V4.087h5.965zm8.763 9.218c.556-.4 1.003-.968 1.339-1.706.336-.739.504-1.615.504-2.63 0-1.022-.168-1.897-.504-2.625-.336-.728-.783-1.286-1.339-1.674-.557-.389-1.178-.583-1.864-.583h-1.124v9.816h1.124c.686 0 1.307-.2 1.864-.598zm3.701-9.885c.623.69 1.103 1.505 1.439 2.446.336.942.504 1.976.504 3.103 0 1.12-.168 2.153-.504 3.102-.336.949-.816 1.771-1.439 2.467-.623.697-1.363 1.237-2.22 1.622-.858.386-1.805.578-2.841.578h-5.387V1.252h5.387c1.036 0 1.983.19 2.84.567.858.378 1.598.911 2.221 1.601zm12.937-2.168v12.211L91.98 1.252h-5.765v15.486h3.654V4.728l4.001 12.01h5.807V1.252h-3.644zm15.395 0v2.835h-5.965V7.55h4.799v2.835h-4.799v3.517h5.965v2.835h-9.735V1.252h9.735zm20.85 12.053c.556-.4 1.002-.968 1.338-1.706.336-.739.504-1.615.504-2.63 0-1.022-.168-1.897-.504-2.625-.336-.728-.782-1.286-1.338-1.674-.557-.389-1.179-.583-1.864-.583h-1.124v9.816h1.124c.685 0 1.307-.2 1.864-.598zm3.701-9.885c.623.69 1.103 1.505 1.438 2.446.337.942.505 1.976.505 3.103 0 1.12-.168 2.153-.505 3.102-.335.949-.815 1.771-1.438 2.467-.623.697-1.363 1.237-2.221 1.622-.858.386-1.804.578-2.84.578h-5.387V1.252h5.387c1.036 0 1.982.19 2.84.567.858.378 1.598.911 2.221 1.601zm1.774 13.318l3.728-15.496h5.944l3.718 15.496h-3.844l-2.835-13.192.01-.047h-.021l.011.047-2.878 13.192h-3.833zm17.836-9.072l2.432-6.414H162l-4.547 10.163v5.323h-3.738v-5.323l-4.516-10.163h3.96l2.43 6.414z" clip-rule="evenodd"/>
    <path fill="#312F4F" d="M40.815 25.45v-.912c1.145-.297 2.084-.523 2.819-.678.748-.17 1.229-.254 1.44-.254.51 0 .764.212.764.635 0 .128-.064.41-.191.848l-1.42 5.128c-.113.41-.212.777-.296 1.102-.071.31-.106.565-.106.763 0 .353.148.53.444.53.396 0 .912-.248 1.547-.742.636-.509 1.272-1.187 1.908-2.034l1.525-6.082 2.713-.148-2.268 9.09h2.056v.87c-1.13.296-2.063.53-2.797.699-.72.155-1.194.233-1.42.233-.495 0-.742-.205-.742-.615 0-.268.043-.55.127-.847l.255-.954c-1.357 1.61-2.713 2.416-4.069 2.416-1.285 0-1.928-.671-1.928-2.013 0-.933.572-3.278 1.716-7.036h-2.077zM52.193 34.498l2.268-9.07h-2.035v-.89c1.116-.297 2.042-.523 2.776-.678.749-.17 1.222-.254 1.42-.254.495 0 .742.212.742.635 0 .269-.036.551-.106.848l-.255.932c1.343-1.61 2.692-2.415 4.048-2.415.65 0 1.13.183 1.44.55.326.368.488.862.488 1.484 0 .72-.233 1.879-.699 3.475l-1.017 3.54h2.077v.91c-1.145.297-2.091.53-2.84.7-.735.155-1.215.233-1.441.233-.494 0-.742-.205-.742-.615 0-.155.064-.438.191-.847l1.42-5.129c.113-.395.205-.755.275-1.08.085-.325.127-.58.127-.763 0-.367-.148-.551-.445-.551-.395 0-.91.254-1.546.763-.636.494-1.279 1.172-1.929 2.034l-1.504 6.04-2.713.148zM63.974 25.428v-.89c2.034-.622 3.341-.932 3.92-.932.678 0 1.017.247 1.017.741 0 .184-.07.558-.211 1.123l-1.802 7.227h2.077v.868c-.763.24-1.504.46-2.225.657-.72.184-1.3.276-1.738.276-.635 0-.953-.276-.953-.827 0-.197.056-.536.17-1.017l1.822-7.226h-2.077zm2.84-4.831c0-.509.176-.933.53-1.272.353-.353.776-.53 1.27-.53.51 0 .933.177 1.272.53.354.34.53.763.53 1.272 0 .494-.176.918-.53 1.271-.339.353-.763.53-1.271.53-.495 0-.918-.177-1.272-.53-.353-.353-.53-.777-.53-1.271zM68.97 25.428v-.89c.565-.184 1.229-.381 1.992-.593.762-.226 1.278-.34 1.546-.34.594 0 .947.283 1.06.848l1.377 7.82c.438-.58.799-1.067 1.081-1.462.438-.622.84-1.335 1.208-2.14.381-.806.572-1.526.572-2.162 0-.382-.106-.685-.318-.911-.198-.24-.572-.544-1.123-.912.565-.72 1.272-1.08 2.12-1.08.451 0 .826.134 1.122.402.311.269.467.664.467 1.187 0 .876-.368 1.97-1.102 3.285-.72 1.3-2.112 3.256-4.175 5.87l-2.098.148-1.61-9.07h-2.12zM79.484 30.916c0-.904.148-1.78.445-2.627.311-.862.742-1.639 1.293-2.331.565-.706 1.285-1.272 2.161-1.695.89-.438 1.865-.657 2.925-.657.946 0 1.66.204 2.14.614.48.396.72.897.72 1.505 0 1.243-.685 2.26-2.055 3.051-1.215.692-2.811 1.194-4.79 1.505v.424c0 .763.17 1.37.51 1.822.338.452.84.678 1.504.678.777 0 1.66-.176 2.649-.53l.275.806c-1.257.678-2.606 1.017-4.047 1.017-1.173 0-2.091-.304-2.755-.911-.65-.622-.975-1.512-.975-2.67zm6.993-5.403c0-.565-.275-.848-.826-.848-.72 0-1.413.488-2.077 1.462-.593.862-.982 1.865-1.165 3.01 2.712-1.018 4.068-2.226 4.068-3.624z"/>
    <path fill="#312F4F" d="M88.574 34.498l2.288-9.091h-2.055v-.869c2.204-.622 3.581-.932 4.132-.932.537 0 .805.204.805.614 0 .255-.07.643-.212 1.166l-.169.593c.113-.141.219-.268.318-.381.381-.467.862-.912 1.44-1.335.58-.438 1.124-.657 1.633-.657.48 0 .861.127 1.144.381.282.254.424.58.424.975 0 .537-.177 1.052-.53 1.547-.382-.198-.728-.375-1.038-.53-.311-.155-.587-.233-.827-.233-.593 0-1.236.374-1.928 1.123-.353.367-.77.897-1.25 1.59l-1.484 5.89-2.691.149z"/>
    <path fill="#312F4F" d="M96.17 32.57c0-.453.163-.827.488-1.124.325-.296.777-.593 1.356-.89.198.565.473 1.187.827 1.865.367.664.89.996 1.568.996.381 0 .699-.127.953-.381.269-.255.403-.566.403-.933 0-.226-.036-.43-.106-.614-.071-.198-.191-.389-.36-.573-.17-.183-.318-.332-.445-.445-.128-.113-.332-.275-.615-.487l-.572-.445c-1.159-.848-1.738-1.879-1.738-3.094 0-.847.368-1.532 1.102-2.055.735-.523 1.745-.784 3.03-.784 1.074 0 1.908.17 2.501.508.593.325.89.742.89 1.25 0 .438-.184.799-.551 1.081-.353.283-.819.466-1.399.551-.24-.55-.423-.946-.551-1.186-.127-.24-.317-.48-.572-.72-.254-.241-.537-.361-.847-.361-.354 0-.622.113-.806.339-.183.212-.275.473-.275.784 0 .636.53 1.328 1.589 2.077.777.579 1.349 1.144 1.717 1.695.367.537.551 1.151.551 1.844 0 .946-.41 1.688-1.229 2.225-.82.536-1.872.805-3.158.805-1.187 0-2.112-.177-2.776-.53-.65-.353-.975-.82-.975-1.399z"/>
    <path fill="#312F4F" d="M105.404 25.428v-.89c2.034-.622 3.341-.932 3.92-.932.678 0 1.017.247 1.017.741 0 .184-.071.558-.212 1.123l-1.801 7.227h2.077v.868c-.763.24-1.505.46-2.225.657-.721.184-1.3.276-1.738.276-.636 0-.954-.276-.954-.827 0-.197.057-.536.17-1.017l1.822-7.226h-2.076zm2.839-4.831c0-.509.177-.933.53-1.272.353-.353.777-.53 1.271-.53.509 0 .933.177 1.272.53.353.34.53.763.53 1.272 0 .494-.177.918-.53 1.271-.339.353-.763.53-1.272.53-.494 0-.918-.177-1.271-.53-.353-.353-.53-.777-.53-1.271zM111.242 33.226c0-.24.043-.501.127-.784l1.844-7.523h-1.716l.169-.826 1.801-.148.488-1.802 2.733-.317-.508 1.97 2.755-.233-.297 1.357h-2.734l-1.716 6.908c-.028.141-.043.233-.043.275 0 .283.142.424.424.424.226 0 1.024-.226 2.395-.678l.254.848c-.367.211-1.059.565-2.077 1.06-1.017.494-1.907.74-2.67.74-.819 0-1.229-.423-1.229-1.27z"/>
    <path fill="#312F4F" d="M117.263 39.435c0-.452.191-.911.572-1.377.396-.466 1.025-1.088 1.886-1.865.622-.565 1.159-1.088 1.611-1.568l-1.653-9.197h-2.14v-.89c.565-.184 1.229-.381 1.992-.593.762-.226 1.271-.34 1.525-.34.608 0 .968.283 1.081.848l1.377 7.65c1.908-2.514 2.861-4.38 2.861-5.594 0-.24-.078-.473-.233-.7-.155-.24-.318-.43-.487-.572-.17-.14-.41-.324-.721-.55.608-.721 1.335-1.081 2.183-1.081.438 0 .805.141 1.102.423.296.283.445.672.445 1.166 0 1.71-1.561 4.45-4.683 8.222l-2.882 3.327c-.255.268-.488.53-.7.784-.197.268-.325.473-.381.614-.057.142-.085.304-.085.488 0 .325.233.742.699 1.25-.494.551-1.151.827-1.97.827-.41 0-.749-.113-1.017-.34-.255-.225-.382-.536-.382-.932z"/>
    <defs>
        <linearGradient id="paint0_linear" x1="110.614" x2="36.352" y1="35.846" y2="-36.858" gradientUnits="userSpaceOnUse">
            <stop stop-color="#743AE8"/>
            <stop offset="1" stop-color="#3A48E8"/>
        </linearGradient>
    </defs>
</svg>
