<svg xmlns="http://www.w3.org/2000/svg" xmlns:xlink="http://www.w3.org/1999/xlink" width="181" height="74.5" viewBox="0 0 181 74.5">
    <defs>
        <linearGradient id="linear-gradient" x1=".137" x2="1.228" y1=".09" y2="1.139" gradientUnits="objectBoundingBox">
            <stop offset="0" stop-color="#3a48e8"/>
            <stop offset="1" stop-color="#743ae8"/>
        </linearGradient>
        <linearGradient id="linear-gradient-2" x1=".868" x2=".137" y1=".109" y2=".841" gradientUnits="objectBoundingBox">
            <stop offset="0" stop-color="#ffd879"/>
            <stop offset="1" stop-color="#ffb043"/>
        </linearGradient>
        <linearGradient id="linear-gradient-3" x1=".547" x2=".5" y1="-.18" y2=".82" xlink:href="#linear-gradient-2"/>
        <linearGradient id="linear-gradient-4" x1=".108" x2=".945" y1=".632" y2=".521" gradientUnits="objectBoundingBox">
            <stop offset="0" stop-color="#312f4f"/>
            <stop offset="1" stop-color="#fff" stop-opacity="0"/>
        </linearGradient>
        <style>
            .cls-8{fill:none;stroke:#312f4f;stroke-linecap:round;stroke-width:1.6px}.cls-4{font-size:22px;fill:#312f4f;font-family:Epilogue-ExtraBold,Epilogue;font-weight:800}
        </style>
    </defs>
    <g id="the_wednesday_show" transform="translate(-59 -127.5)">
        <path id="Line_202" fill="none" stroke="#312f4f" stroke-linecap="round" stroke-miterlimit="10" stroke-width="1.6px" d="M0 3.904L14.794 0" transform="rotate(-74 210.756 -18.448)"/>
        <text id="Wednesday" fill="#3a48e8" font-family="Volkhov-BoldItalic, Volkhov" font-size="22px" font-style="italic" font-weight="700" letter-spacing="-0.06em" transform="translate(135 171)">
            <tspan x="0" y="0">Wednesday</tspan>
        </text>
        <path id="Combined_Shape_Copy" fill="url(#linear-gradient)" d="M37.058 74.116a37.058 37.058 0 0 1-26.2-63.262 37.058 37.058 0 1 1 52.403 52.407 36.815 36.815 0 0 1-26.203 10.855zM36.8 53.137l-4.613 5.541a.281.281 0 0 0-.031.289.162.162 0 0 0 .144.1l2.8 1.436a3.732 3.732 0 0 0 3.406 0l2.793-1.436a.163.163 0 0 0 .145-.106.279.279 0 0 0-.031-.288zm7.029-24.271a1.129 1.129 0 0 1 .344.054l5.575 1.78a2.6 2.6 0 0 1 1.761 2.518v22.21a.662.662 0 0 0 .641.679.61.61 0 0 0 .324-.1l4.49-3.6A5.806 5.806 0 0 0 59.6 47.5V28.463a5.705 5.705 0 0 0-3.3-5.265l-17.762-7.877a5.1 5.1 0 0 0-4.213.035l-16.87 7.813a5.726 5.726 0 0 0-3.225 5.23v19.117a5.814 5.814 0 0 0 2.61 4.9L21.27 56a.606.606 0 0 0 .327.1.661.661 0 0 0 .638-.68V33.462a2.633 2.633 0 0 1 1.628-2.47l5.047-1.949a1.125 1.125 0 0 1 1.532 1.057v19.7l5.015-6.418a1.856 1.856 0 0 1 2.009-.021L42.7 49.8V29.993a1.128 1.128 0 0 1 1.126-1.127z" transform="translate(59 127.5)"/>
        <text id="Show" class="cls-4" transform="translate(137 197)">
            <tspan x="0" y="0">Sh</tspan><tspan y="0" fill="#fff">o</tspan><tspan y="0">w</tspan>
        </text>
        <g id="microphone2" transform="rotate(-90 182.287 15.033)">
            <path id="Path_2521" fill="url(#linear-gradient-2)" d="M.141 5.194A7.13 7.13 0 0 0 .013 7.06a6.5 6.5 0 0 0 1.335 3.457 9.545 9.545 0 0 0 .713.786 6.84 6.84 0 0 0 1.152.878c.238.128.476.256.713.366a7.132 7.132 0 0 0 .878.311h.037c.037 0 .055.018.073.018.037 0 .055.018.091.018a7.4 7.4 0 0 0 .841.146c.146.018.293.018.439.037h.256c.219 0 .439-.018.658-.037.146-.018.293-.037.421-.055a5.589 5.589 0 0 0 1.337-.385 6.322 6.322 0 0 0 1.774-1.079 1.58 1.58 0 0 0 .256-.238 6.172 6.172 0 0 0 .732-.8.018.018 0 0 1 .018-.018 6.516 6.516 0 0 0 1.116-2.323 6.284 6.284 0 0 0 .183-1.152 6.46 6.46 0 0 0-.146-1.89 6.867 6.867 0 0 0-.4-1.225 7.4 7.4 0 0 0-.713-1.225 6.691 6.691 0 0 0-.841-.933l-.036-.034a7.122 7.122 0 0 0-.732-.567c-.219-.146-.439-.274-.677-.4A6.435 6.435 0 0 0 8.774.4a6.551 6.551 0 0 0-.64-.2 6.184 6.184 0 0 0-.987-.163C6.909.018 6.671 0 6.433 0a5.629 5.629 0 0 0-1.115.11 4.978 4.978 0 0 0-.9.238c-.037.018-.073.018-.11.037l-.274.11a5.725 5.725 0 0 0-1.189.64c-.128.091-.274.183-.4.293-.073.055-.146.128-.219.183a7.009 7.009 0 0 0-.53.512 3.591 3.591 0 0 0-.457.585A6.5 6.5 0 0 0 .2 4.92a.793.793 0 0 1-.018.091c-.022.074-.022.129-.041.183z" transform="translate(.029)"/>
            <path id="Path_2522" fill="url(#linear-gradient-3)" d="M.207 5.012l.2.658 1.556-2.835-.22-.735a7 7 0 0 1 .53-.512c.073-.055.146-.128.219-.183l.091.293.317-.582a5.724 5.724 0 0 1 1.185-.64l.274-.11-1.408 2.579.933 3.146 1.481-2.726L4.469.329a7.164 7.164 0 0 1 .9-.238l.622 2.122L7.194 0a9.267 9.267 0 0 1 .988.165 6.546 6.546 0 0 1 .64.2l.622 2.1.768-1.408a5.565 5.565 0 0 1 .732.567L9.81 3.713l.878 2.981 1.518-2.78-.385-1.314a6.3 6.3 0 0 1 .713 1.225 5.658 5.658 0 0 1 .4 1.225 6.461 6.461 0 0 1 .146 1.884l-.512-1.774-1.518 2.78.732 2.487a5.1 5.1 0 0 1-.732.8l-.64-2.14-1.57 2.893.16.567a5.843 5.843 0 0 1-1.335.384c-.146.018-.293.037-.421.055l.6-1.116-.869-2.981-1.5 2.725.4 1.372a6.753 6.753 0 0 1-.841-.146c-.037 0-.055-.018-.091-.018s-.055-.018-.073-.018l-.018-.037-.018.037a6.2 6.2 0 0 1-.878-.311l.53-.988-.9-3.036-1.518 2.78a5.889 5.889 0 0 1-.713-.786A6.407 6.407 0 0 1 .024 7.005 5.916 5.916 0 0 1 .152 5.14c.037-.019.037-.074.055-.128zm8.286 5.743l1.573-2.89-.878-2.982-1.573 2.89zm.329-7.115L7.926.6 6.353 3.493l.9 3.036zm-3.695 6.749l1.482-2.725-.9-3.036-1.478 2.725zm-3.439-.311l1.555-2.835L2.31 4.1.774 6.932z" transform="translate(0 .018)"/>
        </g>
        <path id="Path_4804" d="M0 3.4L41.593 0" class="cls-8" transform="translate(174.392 177.31)"/>
        <path id="Path_4803" fill="none" stroke="#312f4f" stroke-miterlimit="10" stroke-width="0.4px" d="M0 0a9.715 9.715 0 0 1 6.833 5.859C8.6 10.733 3.89 14.57 6.614 20.37s7.951 4.679 10.844 8.668.728 7.289.728 7.289" opacity="0.565" transform="rotate(-67 223.48 -42.634)"/>
        <path id="Path_4830" d="M0 .261L1.038 0" class="cls-8" transform="rotate(-74 207.601 -25.777)"/>
        <text id="The" class="cls-4" transform="translate(135 149)">
            <tspan x="0" y="0">The</tspan>
        </text>
        <path id="Path_4805" fill="url(#linear-gradient-4)" d="M.824 0h13.6a.824.824 0 0 1 0 1.649H.824A.824.824 0 1 1 .824 0z" transform="rotate(-4.1 2574.18 -2905.714)"/>
    </g>
</svg>
