<svg width="32" height="32" viewBox="0 0 32 32" fill="none" xmlns="http://www.w3.org/2000/svg">
<path fill-rule="evenodd" clip-rule="evenodd" d="M25.7309 20.5099C25.7309 21.3796 25.2997 22.1844 24.5955 22.6282L22.6563 24.1827C22.4729 24.2985 22.2403 24.1576 22.2403 23.9307V14.3414C22.2403 13.84 21.9312 13.3983 21.4795 13.2543L19.0714 12.4867C18.7576 12.3866 18.4369 12.6208 18.4369 12.9504V21.5027L16.1766 18.7227C15.9078 18.555 15.5745 18.5587 15.3094 18.7321L13.1439 21.5027V12.9939C13.1439 12.6522 12.8007 12.417 12.4822 12.5401L10.3036 13.3816C9.88126 13.5445 9.60042 13.971 9.60042 14.4478V23.9286C9.60042 24.156 9.36726 24.2969 9.18335 24.1796L7.27144 22.6298C6.57196 22.1849 6.14389 21.3822 6.14389 20.5156V12.2619C6.14389 11.2816 6.6909 10.3946 7.53656 10.0032L14.8206 6.63001C15.3964 6.36332 16.0592 6.35808 16.6392 6.61534L24.3052 10.0158C25.1687 10.3988 25.7309 11.2952 25.7309 12.2897V20.5099ZM17.8291 25.5052L16.623 26.125C16.1614 26.3618 15.6138 26.3618 15.1522 26.125L13.9451 25.5052C13.8775 25.5052 13.8455 25.3951 13.8958 25.3349L15.8873 22.9431L17.8789 25.3349C17.9292 25.3951 17.8967 25.5052 17.8291 25.5052V25.5052ZM16 0C7.16351 0 0 7.16339 0 16.0003C0 24.8366 7.16351 32 16 32C24.8365 32 32 24.8366 32 16.0003C32 7.16339 24.8365 0 16 0V0Z" fill="url(#paint0_linear)"/>
<defs>
<linearGradient id="paint0_linear" x1="99.8379" y1="32.1074" x2="32.8105" y2="-33.5137" gradientUnits="userSpaceOnUse">
<stop stop-color="#743AE8"/>
<stop offset="1" stop-color="#3A48E8"/>
</linearGradient>
</defs>
</svg>
